<svg id="Layer_1" data-name="Layer 1" xmlns="http://www.w3.org/2000/svg" viewBox="0 0 300 150">
    <defs>
        <style>.cls-1{fill:#fcfcfc;}.cls-2{fill:#999;}</style>
    </defs>
    <path id="Path_230" data-name="Path 230" class="cls-1"
        d="M20.47366,0H279.52635a21.549,21.549,0,0,1,20.451,22.5v105a21.549,21.549,0,0,1-20.451,22.5H20.47366a21.549,21.549,0,0,1-20.451-22.5V22.5A21.549,21.549,0,0,1,20.47366,0Z"
        transform="translate(0)" />
    <path id="Path_231" data-name="Path 231"
        d="M281.25034,59.806l-8.114-4.67-8.114-4.9a8.191,8.191,0,0,0-12.248,7.119v.995a1.761,1.761,0,0,0,.766,1.454l3.827,2.143a1.531,1.531,0,0,0,2.09916-.53057l.00085-.00143.045-.08a1.4541,1.4541,0,0,0,0-.765V58.121a1.608,1.608,0,0,1,1.527-1.684h.922l7.655,4.363,7.655,4.287a1.684,1.684,0,0,1,.536,2.3l-.536.536-7.657,4.283-7.655,4.363a1.607,1.607,0,0,1-2.21174-.52258l-.00026-.00042-.008-.012a1.838,1.838,0,0,1,0-.919V73.89a8.191,8.191,0,0,0-12.248-7.119l-8.263,4.746-8.114,4.67a8.268,8.268,0,0,0-3.062,11.176,7.65609,7.65609,0,0,0,3.062,3.062l8.114,4.67,8.267,4.67a8.191,8.191,0,0,0,12.248-7.119v-.995a1.761,1.761,0,0,0-.765-1.454l-3.828-2.22a1.531,1.531,0,0,0-2.09915.53057l-.00085.00143-.045.08a1.76014,1.76014,0,0,0,0,.842v2.45a1.608,1.608,0,0,1-1.527,1.684h0a2.06588,2.06588,0,0,1-.919,0l-7.661-4.365-7.655-4.287a1.684,1.684,0,0,1-.842-2.143l.536-.536,7.655-4.287,7.655-4.363a1.607,1.607,0,0,1,2.21175.52259l.00025.00041.007.012a1.83592,1.83592,0,0,1,0,.919v1.225a8.191,8.191,0,0,0,12.248,7.119l8.268-4.746,8.114-4.67a8.114,8.114,0,0,0,2.66-11.16l-.056-.09A7.65393,7.65393,0,0,0,281.25034,59.806Z"
        transform="translate(0)" />
    <path id="Path_232" data-name="Path 232"
        d="M227.8292,61.183l-19.061,39.347h-7.655l7.119-14.7-11.177-24.647h8.115l7.2,16.458,7.651-16.458Z"
        transform="translate(0)" />
    <path id="Path_233" data-name="Path 233"
        d="M37.32771,75.115a7.655,7.655,0,1,0-7.655,8.038h0a7.655,7.655,0,0,0,7.655-7.655h0v-.382m0,14.009V85.449a11.40608,11.40608,0,0,1-8.88,4.134A13.7,13.7,0,0,1,15.0475,75.58957l.00015-.00657v-.466A13.932,13.932,0,0,1,28.42033,60.64725l.00635-.00025h.021a11.25308,11.25308,0,0,1,8.727,4.058V61.182h6.813V89.123Z"
        transform="translate(0)" />
    <path id="Path_234" data-name="Path 234"
        d="M77.66181,82.773c-2.45,0-3.062-.919-3.062-3.215v-12.1h4.363V61.412h-4.364V54.373h-7.042v6.813h-9.188V58.35c0-2.3.919-3.215,3.368-3.215h1.532V49.7h-3.291c-5.818,0-8.574,1.914-8.574,7.655v3.751h-3.9V67.46h3.9V89.353h6.965V67.459h9.186v13.7c0,5.741,2.143,8.191,7.655,8.191h3.829V82.773Z"
        transform="translate(0)" />
    <path id="Path_235" data-name="Path 235"
        d="M102.91788,72.588a6.66,6.66,0,0,0-6.966-5.741,6.813,6.813,0,0,0-7.043,5.741Zm-13.93,4.368a6.966,6.966,0,0,0,7.2,6.507,7.655,7.655,0,0,0,6.583-3.6h7.2a13.7,13.7,0,0,1-13.932,9.722,13.779,13.779,0,0,1-14.7-12.784V75.115a14.468,14.468,0,0,1,28.93608-.01h0v.01h0a6.80877,6.80877,0,0,1,0,1.761Z"
        transform="translate(0)" />
    <path id="Path_236" data-name="Path 236"
        d="M155.27,75.115a7.655,7.655,0,1,0,0,.383v-.383M133.147,100.53V61.182h6.813v3.6a11.40606,11.40606,0,0,1,8.88-4.134,13.7,13.7,0,0,1,13.4731,13.92324l-.00006.00376v.54a13.932,13.932,0,0,1-13.37567,14.467H148.916a11.023,11.023,0,0,1-8.5-3.751v14.7Z"
        transform="translate(0)" />
    <path id="Path_237" data-name="Path 237"
        d="M187.1091,75.115a7.655,7.655,0,1,0-8.038,8.038h.382a7.655,7.655,0,0,0,7.655-7.655v-.382m0,14.009V85.449a11.17708,11.17708,0,0,1-8.8,4.134,13.7,13.7,0,0,1-13.47514-13.92126l.00011-.00674v-.54a13.932,13.932,0,0,1,13.37463-14.46794l.0014-.00006h.021a11.1,11.1,0,0,1,8.65,4.058V61.183h6.89V89.124Z"
        transform="translate(0)" />
    <path id="Path_238" data-name="Path 238"
        d="M120.74892,63.939a6.966,6.966,0,0,1,6.047-3.292,6.7359,6.7359,0,0,1,2.983.612v7.2a8.8,8.8,0,0,0-4.976-1.3,4.9,4.9,0,0,0-3.824,5.43V89.124h-7.119V61.183h6.89Z"
        transform="translate(0)" />
</svg>